<?xml version="1.0" encoding="UTF-8"?>
<svg version="1.1" xmlns="http://www.w3.org/2000/svg" width="255" height="229">
<path d="M0 0 C84.15 0 168.3 0 255 0 C255 75.57 255 151.14 255 229 C170.85 229 86.7 229 0 229 C0 153.43 0 77.86 0 0 Z " fill="#010101" transform="translate(0,0)"/>
<path d="M0 0 C30.03 0 60.06 0 91 0 C91 54.78 91 109.56 91 166 C88.66683375 162.88911167 86.90106746 160.12956667 85.1015625 156.73046875 C84.26951294 155.1688501 84.26951294 155.1688501 83.4206543 153.57568359 C82.82808838 152.45758301 82.23552246 151.33948242 81.625 150.1875 C77.09262807 141.68348024 72.47587431 133.23842198 67.6875 124.875 C62.04369188 114.99615504 56.70436614 104.97122594 51.39730835 94.90936279 C46.8881403 86.36553107 42.30415059 77.88300015 37.5 69.5 C31.91724461 59.7583738 26.64710937 49.86812514 21.41259766 39.93692017 C16.06294767 29.79286093 10.56905575 19.75430166 4.84570312 9.81445312 C4.35005859 8.95142578 3.85441406 8.08839844 3.34375 7.19921875 C2.91255859 6.45502686 2.48136719 5.71083496 2.03710938 4.9440918 C1 3 1 3 0 0 Z " fill="#006FB6" transform="translate(164,0)"/>
<path d="M0 0 C2.88168011 3.60210014 4.90599682 6.39903752 6.99609375 10.3671875 C7.5478125 11.40552734 8.09953125 12.44386719 8.66796875 13.51367188 C9.25191406 14.62291016 9.83585938 15.73214844 10.4375 16.875 C11.69464373 19.23806202 12.95314249 21.60031442 14.21484375 23.9609375 C14.69182205 24.85416718 14.69182205 24.85416718 15.17843628 25.76544189 C18.1943426 31.39635089 21.33263425 36.95333056 24.5 42.5 C29.12071576 50.60437097 33.60010119 58.77370643 38 67 C42.87250377 76.10593569 47.85883421 85.13427157 52.96704102 94.10986328 C57.70012875 102.43673676 62.33157227 110.81770711 66.94671631 119.2102356 C70.64956824 125.94315322 74.36412499 132.66865333 78.12890625 139.3671875 C78.45801498 139.95297577 78.78712372 140.53876404 79.12620544 141.14230347 C80.69279694 143.92922976 82.26248259 146.71436274 83.83569336 149.49755859 C84.65952515 150.96056396 84.65952515 150.96056396 85.5 152.453125 C85.9846875 153.31067383 86.469375 154.16822266 86.96875 155.05175781 C88 157 88 157 88 158 C58.96 158 29.92 158 0 158 C0 105.86 0 53.72 0 0 Z " fill="#006FB6" transform="translate(0,71)"/>
<path d="M0 0 C19.14 0 38.28 0 58 0 C58 34.65 58 69.3 58 105 C55.23078113 102.23078113 53.89391694 100.23294754 52.1015625 96.828125 C51.54654053 95.78317871 50.99151855 94.73823242 50.41967773 93.66162109 C49.53131226 91.97286865 49.53131226 91.97286865 48.625 90.25 C47.361847 87.87037686 46.09369274 85.49344365 44.82421875 83.1171875 C44.50334793 82.51593048 44.18247711 81.91467346 43.85188293 81.29519653 C40.8050602 75.60245765 37.63703755 69.98288643 34.4375 64.375 C29.40030552 55.53250444 24.50983672 46.61939473 19.68139648 37.66137695 C15.58548506 30.06540261 11.42462113 22.50821375 7.21875 14.97265625 C6.86296875 14.33344238 6.5071875 13.69422852 6.140625 13.03564453 C5.30420496 11.54290688 4.45921811 10.05496087 3.609375 8.56982422 C2.92101562 7.35770264 2.92101562 7.35770264 2.21875 6.12109375 C1.79529297 5.38173584 1.37183594 4.64237793 0.93554688 3.88061523 C0 2 0 2 0 0 Z " fill="#000001" transform="translate(197,0)"/>
<path d="M0 0 C2.2014707 -0.2714142 4.41266228 -0.46468567 6.625 -0.625 C8.46964844 -0.79902344 8.46964844 -0.79902344 10.3515625 -0.9765625 C14.55052121 0.14735578 14.85390036 0.66260403 17.01953125 4.21484375 C18.03624408 6.13108666 19.02812301 8.06063232 20 10 C21.13438802 12.09891759 22.27121121 14.19652045 23.41015625 16.29296875 C24.62934509 18.59022274 25.84671875 20.88844078 27.0625 23.1875 C31.71499377 31.9455765 36.4466278 40.64304164 41.375 49.25 C46.9984568 59.083391 52.31500916 69.06355811 57.59793091 79.0821228 C62.69637904 88.74511812 67.93882089 98.30357274 73.37207031 107.78369141 C77.8961976 115.71599458 82.1343003 123.78502301 86.30786133 131.90649414 C86.77861084 132.82164795 87.24936035 133.73680176 87.734375 134.6796875 C88.14913086 135.49163574 88.56388672 136.30358398 88.99121094 137.14013672 C89.86302516 138.95783424 89.86302516 138.95783424 91 140 C91.08748207 141.92667507 91.10697334 143.85651861 91.09765625 145.78515625 C91.09282227 147.53989258 91.09282227 147.53989258 91.08789062 149.33007812 C91.07532227 151.17762695 91.07532227 151.17762695 91.0625 153.0625 C91.05798828 154.29806641 91.05347656 155.53363281 91.04882812 156.80664062 C91.03699608 159.87114117 91.02051173 162.93554721 91 166 C88.67422693 163.05381986 86.8567396 160.04583546 85.1015625 156.73046875 C84.26951294 155.1688501 84.26951294 155.1688501 83.4206543 153.57568359 C82.82808838 152.45758301 82.23552246 151.33948242 81.625 150.1875 C77.09262807 141.68348024 72.47587431 133.23842198 67.6875 124.875 C62.04369188 114.99615504 56.70436614 104.97122594 51.39730835 94.90936279 C46.8881403 86.36553107 42.30415059 77.88300015 37.5 69.5 C31.91724461 59.7583738 26.64710937 49.86812514 21.41259766 39.93692017 C16.06294767 29.79286093 10.56905575 19.75430166 4.84570312 9.81445312 C4.35005859 8.95142578 3.85441406 8.08839844 3.34375 7.19921875 C2.91255859 6.45502686 2.48136719 5.71083496 2.03710938 4.9440918 C1 3 1 3 0 0 Z " fill="#DBDBDB" transform="translate(164,0)"/>
<path d="M0 0 C2.97963454 2.97963454 4.42727559 5.38046195 6.37109375 9.08203125 C6.68935623 9.68387741 7.00761871 10.28572357 7.33552551 10.9058075 C8.01866513 12.19897192 8.69934829 13.49343643 9.37780762 14.7890625 C10.81060692 17.52493178 12.25536749 20.25441668 13.69967651 22.98422241 C14.42936514 24.36349178 15.15846959 25.74307036 15.88699341 27.12295532 C18.96064514 32.94134082 22.08908189 38.72853791 25.25 44.5 C25.95950806 45.79623291 25.95950806 45.79623291 26.68334961 47.11865234 C27.63164392 48.85029199 28.58029126 50.58173836 29.52929688 52.31298828 C31.11225494 55.20509261 32.68953645 58.10024037 34.265625 60.99609375 C35.07725098 62.48689453 35.07725098 62.48689453 35.90527344 64.0078125 C36.93498853 65.89951199 37.96431353 67.7914239 38.99316406 69.68359375 C41.06485302 73.48622392 43.1493651 77.27056457 45.34375 81.00390625 C47 84 47 84 47 86 C31.49 86 15.98 86 0 86 C0 57.62 0 29.24 0 0 Z " fill="#010101" transform="translate(0,143)"/>
<path d="M0 0 C4.97516968 2.4346575 9.29453561 6.12427154 12.5078125 10.6484375 C12.97960937 11.23882812 13.45140625 11.82921875 13.9375 12.4375 C16.56375139 12.77175735 16.56375139 12.77175735 18.9375 12.4375 C18.9647415 13.85405793 18.98400467 15.27077045 19 16.6875 C19.01160156 17.47640625 19.02320313 18.2653125 19.03515625 19.078125 C18.94135306 21.34441002 18.56991063 23.2663895 17.9375 25.4375 C16.02114783 25.49173638 14.10435075 25.53039963 12.1875 25.5625 C11.12015625 25.58570313 10.0528125 25.60890625 8.953125 25.6328125 C6.01279894 25.44237687 4.41388122 24.96420104 1.9375 23.4375 C2.185 22.695 2.4325 21.9525 2.6875 21.1875 C3.24475106 18.34492636 3.24475106 18.34492636 1.3125 16.125 C-1.43150115 14.17531497 -2.77256898 14.07195211 -6.0625 14.4375 C-5.64855491 20.4167068 -3.89746213 23.86822185 -0.4375 28.6875 C0.46895947 30.00897092 1.37520805 31.33058653 2.28125 32.65234375 C3.8858015 34.95254671 5.51200631 37.231492 7.15625 39.50390625 C11.39096329 45.60432313 13.16699447 49.99297854 11.9375 57.4375 C10.82304909 62.45252908 7.90990152 64.45819886 3.9375 67.4375 C0.92062439 68.9459378 -1.894605 68.68706564 -5.25 68.75 C-7.18939453 68.80607422 -7.18939453 68.80607422 -9.16796875 68.86328125 C-13.59009328 68.37981929 -16.72048198 67.33418369 -20.0625 64.4375 C-22.18533249 61.76760102 -23.8390455 58.91112943 -25.5 55.9375 C-26.44055902 54.32166366 -27.38327925 52.70708346 -28.328125 51.09375 C-28.78638672 50.30355469 -29.24464844 49.51335937 -29.71679688 48.69921875 C-32.18818299 44.54556835 -34.9466926 40.59658082 -37.69921875 36.625 C-39.0625 34.4375 -39.0625 34.4375 -39.0625 32.4375 C-36.21096484 31.48698828 -34.16350259 31.21093321 -31.1875 31.125 C-30.34445313 31.08761719 -29.50140625 31.05023438 -28.6328125 31.01171875 C-24.97310361 31.61796232 -23.69384066 32.77837746 -21.0625 35.4375 C-18.09392902 39.63594769 -15.4613447 44.04399997 -12.79101562 48.43554688 C-11.9644043 49.7571582 -11.9644043 49.7571582 -11.12109375 51.10546875 C-10.62923584 51.91266357 -10.13737793 52.7198584 -9.63061523 53.55151367 C-7.83443355 55.71179757 -6.80420214 56.09002284 -4.0625 56.4375 C-5.39482999 46.03624199 -12.07014135 37.7484672 -18.109375 29.48046875 C-22.19967744 23.10777755 -22.94735912 16.85925583 -22.0625 9.4375 C-17.37903464 -0.46983057 -9.83550923 -1.8065221 0 0 Z " fill="#F9F9F9" transform="translate(115.0625,124.5625)"/>
<path d="M0 0 C2.98201742 2.59080379 4.51823385 5.56716843 6.3359375 9.046875 C6.65146576 9.64594162 6.96699402 10.24500824 7.29208374 10.86222839 C7.97051957 12.15086306 8.64664313 13.44071722 9.32067871 14.73165894 C11.11006806 18.15717831 12.9176074 21.57306321 14.7265625 24.98828125 C15.08983643 25.67455093 15.45311035 26.36082062 15.82739258 27.06788635 C19.02479055 33.08799282 22.36036323 39.02357711 25.75 44.9375 C30.53934218 53.30822049 35.05964525 61.78697651 39.47265625 70.36132812 C43.57943223 78.29856666 47.95985209 86.06063408 52.3972168 93.81665039 C56.90998943 101.74311604 61.01508984 109.79577321 65 118 C59.06 118 53.12 118 47 118 C46.05640625 116.23398438 45.1128125 114.46796875 44.140625 112.6484375 C36.64361264 98.62848434 29.10428992 84.63389449 21.46923828 70.68847656 C19.93196476 67.87550614 18.40083537 65.05926043 16.87109375 62.2421875 C16.35281006 61.29085937 15.83452637 60.33953125 15.30053711 59.359375 C14.2735122 57.46541882 13.25466643 55.56700263 12.24438477 53.6640625 C10.17924155 49.80462582 8.18058148 46.07856027 5.46875 42.6328125 C1.08534145 36.69051569 -0.50038467 31.34734604 -0.484375 24.03125 C-0.49448608 23.31202362 -0.50459717 22.59279724 -0.51501465 21.85177612 C-0.58394373 14.56292447 -0.34037148 7.28002235 0 0 Z " fill="#DBDBDA" transform="translate(0,111)"/>
<path d="M0 0 C5.28 0 10.56 0 16 0 C16.02255606 7.28421977 16.04091801 14.56842059 16.05181217 21.85266781 C16.05703975 25.23471813 16.06413511 28.6167434 16.07543945 31.9987793 C16.08834267 35.88329777 16.09322924 39.76780597 16.09765625 43.65234375 C16.10281754 44.87211411 16.10797882 46.09188446 16.11329651 47.34861755 C16.11340981 49.03024742 16.11340981 49.03024742 16.11352539 50.74584961 C16.115746 51.73846298 16.11796661 52.73107635 16.12025452 53.75376892 C16 56 16 56 15 57 C10.05 57 5.1 57 0 57 C0 38.19 0 19.38 0 0 Z " fill="#F9F9F9" transform="translate(67,61)"/>
<path d="M0 0 C2.2129192 2.81987048 3.99620392 5.66964778 5.6796875 8.83203125 C6.44454468 10.25926514 6.44454468 10.25926514 7.22485352 11.71533203 C7.76940186 12.73739746 8.3139502 13.75946289 8.875 14.8125 C13.34485332 23.13801871 17.88836984 31.41241055 22.5625 39.625 C27.29637928 47.94792252 31.92220088 56.3220349 36.48510742 64.73974609 C40.04221326 71.2856593 43.68926357 77.77577882 47.375 84.25 C52.8753197 93.91525336 58.18136924 103.67627432 63.41943359 113.48535156 C63.97453613 114.52401367 64.52963867 115.56267578 65.1015625 116.6328125 C65.58963379 117.54949707 66.07770508 118.46618164 66.58056641 119.41064453 C67.56441072 121.20539045 68.60234209 122.9711301 69.68115234 124.71044922 C71 127 71 127 71 129 C69.02 129 67.04 129 65 129 C58.29512088 117.49434641 51.98189433 105.78447468 45.65820312 94.06640625 C42.62886253 88.46444543 39.57246241 82.87727715 36.51831055 77.28881836 C33.93865474 72.5650111 31.3691674 67.83605906 28.81640625 63.09765625 C22.82082035 51.97330527 16.7431302 40.90528397 10.48852539 29.92407227 C9.48940718 28.16929951 8.49411253 26.4123434 7.50292969 24.65307617 C6.45078342 22.79575429 5.38230754 20.94763177 4.30175781 19.10668945 C3.48143066 17.67715942 3.48143066 17.67715942 2.64453125 16.21875 C1.89780151 14.93967773 1.89780151 14.93967773 1.13598633 13.63476562 C-0.78582559 9.17738454 -0.49633283 4.75192726 0 0 Z " fill="#040709" transform="translate(0,100)"/>
<path d="M0 0 C0.66 0 1.32 0 2 0 C2 1.32 2 2.64 2 4 C2.5593222 3.99333817 3.11864441 3.98667633 3.69491577 3.97981262 C9.50195584 3.91358313 15.30888913 3.86825129 21.11621094 3.83520508 C23.28520056 3.820093 25.4541595 3.79960265 27.62304688 3.77368164 C30.73575396 3.73740466 33.84805805 3.7202981 36.9609375 3.70703125 C38.42193375 3.68380547 38.42193375 3.68380547 39.91244507 3.66011047 C40.81322784 3.65988388 41.71401062 3.65965729 42.64208984 3.65942383 C43.43706879 3.65276199 44.23204773 3.64610016 45.05111694 3.63923645 C45.69424835 3.75828842 46.33737976 3.87734039 47 4 C49.72121685 8.08182528 49.13757349 11.25371461 49 16 C38.90375986 17.10233444 28.88866784 17.11736516 18.75 17.0625 C17.11849097 17.05747149 15.48698042 17.05291099 13.85546875 17.04882812 C9.9036077 17.03793757 5.95182108 17.02074866 2 17 C2 18.32 2 19.64 2 21 C-1.21524305 19.59155282 -3.32183868 17.89655214 -5.75 15.375 C-6.36359375 14.74335937 -6.9771875 14.11171875 -7.609375 13.4609375 C-8.06828125 12.97882812 -8.5271875 12.49671875 -9 12 C-7 9.33333333 -5 6.66666667 -3 4 C-2.48050781 3.25234375 -1.96101563 2.5046875 -1.42578125 1.734375 C-0.95527344 1.16203125 -0.48476563 0.5896875 0 0 Z " fill="#F7F7F7" transform="translate(57,41)"/>
<path d="M0 0 C1.65 0 3.3 0 5 0 C14.1139814 16.0181539 23.06432398 32.12257387 31.94726562 48.26953125 C35.31476241 54.39036251 38.6884336 60.50778851 42.0625 66.625 C42.39251007 67.22347748 42.72252014 67.82195496 43.06253052 68.43856812 C47.3098287 76.14047226 51.5705847 83.83468958 55.84912109 91.51928711 C57.10355851 93.77505107 58.35524611 96.0323467 59.60400391 98.29125977 C62.55714804 103.63201025 65.5398551 108.94945319 68.60546875 114.2265625 C69.1684668 115.21277588 69.73146484 116.19898926 70.31152344 117.21508789 C71.35618859 119.04450677 72.41680079 120.86496117 73.49707031 122.67358398 C76.84939467 128.605381 77.65669655 133.21773895 77 140 C73.9183698 137.35994845 72.27377365 134.06383904 70.4453125 130.515625 C70.10776947 129.87248352 69.77022644 129.22934204 69.42245483 128.56671143 C68.69713079 127.18423266 67.97411209 125.80054241 67.25317383 124.41577148 C65.34065428 120.74428028 63.40937877 117.0827125 61.4765625 113.421875 C61.09095154 112.6911377 60.70534058 111.96040039 60.30804443 111.20751953 C57.14926535 105.24061929 53.86229689 99.35468155 50.5 93.5 C44.91244346 83.75224882 39.6413205 73.85383973 34.40151978 63.91677856 C29.30216245 54.25208987 24.05576565 44.69381267 18.62573242 35.2097168 C12.05174264 23.6742253 5.9178966 11.8849536 0 0 Z " fill="#06080B" transform="translate(178,0)"/>
<path d="M0 0 C2.82424288 2.19022918 4.41508603 3.83017207 6 7 C6.35017306 12.3401391 6.46830225 15.66462219 3 20 C0.40063719 22.79190821 -1.00859908 23.00110956 -4.875 23.5 C-9.65776952 23.33014463 -11.75730635 21.40087383 -15 18 C-16.35020977 13.9493707 -16.55728804 10.23538911 -16 6 C-11.94593628 -0.48650194 -7.27098548 -1.05177777 0 0 Z " fill="#EDEDED" transform="translate(233,164)"/>
<path d="M0 0 C3.1875 1.3125 3.1875 1.3125 5 4 C5.39448142 7.70492687 5.28782649 11.29023631 5 15 C5.66 15 6.32 15 7 15 C7 16.65 7 18.3 7 20 C0.375 20.125 0.375 20.125 -3 19 C-3.66 19.33 -4.32 19.66 -5 20 C-6.49649362 20.12005453 -7.99874793 20.17531451 -9.5 20.1875 C-10.2940625 20.20167969 -11.088125 20.21585938 -11.90625 20.23046875 C-14 20 -14 20 -16 18 C-16.45409879 14.51857596 -16.39476404 12.65221885 -14.5625 9.625 C-10.79880462 7.23826634 -7.34043107 7.66612069 -3 8 C-3 7.01 -3 6.02 -3 5 C-3.66 5.165 -4.32 5.33 -5 5.5 C-8.73099794 6.12183299 -12.21873378 6.06408926 -16 6 C-12.84629394 -1.27778323 -7.04746247 -0.77161998 0 0 Z " fill="#F3F3F3" transform="translate(103,96)"/>
<path d="M0 0 C11.36042216 -0.4939314 11.36042216 -0.4939314 14.3671875 1.828125 C16.5543829 4.73740883 16.4456921 6.43446318 16 10 C15 12.375 15 12.375 14 14 C14.66 14.94875 15.32 15.8975 16 16.875 C18 20 18 20 18 22 C15.69 22 13.38 22 11 22 C9.68 19.69 8.36 17.38 7 15 C6.67 17.31 6.34 19.62 6 22 C4.02 22 2.04 22 0 22 C0 14.74 0 7.48 0 0 Z " fill="#F3F3F3" transform="translate(197,164)"/>
<path d="M0 0 C0.886875 -0.00257813 1.77375 -0.00515625 2.6875 -0.0078125 C5 0.125 5 0.125 7 1.125 C6.67 2.445 6.34 3.765 6 5.125 C5.37351563 5.17398438 4.74703125 5.22296875 4.1015625 5.2734375 C3.28429687 5.34820312 2.46703125 5.42296875 1.625 5.5 C0.81289062 5.56960937 0.00078125 5.63921875 -0.8359375 5.7109375 C-3.20334191 5.95392588 -3.20334191 5.95392588 -5 8.125 C-5.34490322 12.17761287 -5.30163882 13.67254176 -3 17.125 C-0.43717258 17.85465366 -0.43717258 17.85465366 2 18.125 C2 16.805 2 15.485 2 14.125 C0.68 14.125 -0.64 14.125 -2 14.125 C-2 12.475 -2 10.825 -2 9.125 C-0.52093108 9.09810784 0.95827483 9.07865379 2.4375 9.0625 C3.26121094 9.05089844 4.08492187 9.03929687 4.93359375 9.02734375 C7 9.125 7 9.125 8 10.125 C8.07226502 11.97787502 8.0838122 13.83333878 8.0625 15.6875 C8.05347656 16.69941406 8.04445312 17.71132812 8.03515625 18.75390625 C8.02355469 19.53636719 8.01195312 20.31882813 8 21.125 C3.68846464 23.55389662 -0.13409452 23.97527068 -5 23.125 C-8.07061968 21.41131391 -10.40450726 19.31598548 -12 16.125 C-12.53118173 12.33084481 -12.85089348 8.66168822 -10.953125 5.234375 C-7.44178555 0.97945778 -5.34408572 -0.01553513 0 0 Z " fill="#EDEDED" transform="translate(161,163.875)"/>
<path d="M0 0 C5.37305699 -0.35233161 5.37305699 -0.35233161 8 0 C10 2 10 2 11 4 C11.33 3.34 11.66 2.68 12 2 C14 0 14 0 15.98046875 -0.265625 C17.98888143 -0.25140615 19.99584122 -0.13142025 22 0 C20.88336699 2.31916086 19.75810791 4.33692112 18.25 6.4375 C16.71035897 8.91170253 16.71035897 8.91170253 17.5625 11.4375 C19.2272828 14.4051563 21.05339099 17.20986042 23 20 C19.9465865 20.29359745 17.04256578 20.4451258 14 20 C11.4375 17.5 11.4375 17.5 10 15 C9.505 16.2375 9.505 16.2375 9 17.5 C7 20 7 20 5.01953125 20.33203125 C3.01004942 20.31424822 1.0028436 20.16416751 -1 20 C-0.38125 18.9275 0.2375 17.855 0.875 16.75 C2.3323679 14.20219016 3.72924491 11.64740645 5 9 C4.6390625 8.51789063 4.278125 8.03578125 3.90625 7.5390625 C3.4421875 6.90742187 2.978125 6.27578125 2.5 5.625 C2.0359375 4.99851562 1.571875 4.37203125 1.09375 3.7265625 C0 2 0 2 0 0 Z " fill="#F0F0F0" transform="translate(112,96)"/>
<path d="M0 0 C1.98 0 3.96 0 6 0 C6.33 5.28 6.66 10.56 7 16 C8.32 16.33 9.64 16.66 11 17 C13.05922402 14.94077598 12.41427579 10.78291876 12.5625 7.9375 C12.60568359 7.17888672 12.64886719 6.42027344 12.69335938 5.63867188 C12.79973633 3.75934562 12.90039934 1.87969756 13 0 C14.98 0 16.96 0 19 0 C19.1083667 2.7302389 19.18746694 5.45614543 19.25 8.1875 C19.30027344 9.34088867 19.30027344 9.34088867 19.3515625 10.51757812 C19.42066039 14.54253008 19.31755003 16.49808724 17.109375 19.98828125 C13.83680509 23.1093433 11.49743507 23.33402845 6.97265625 23.29296875 C5 23 5 23 2.5625 21.125 C-0.48852916 16.97560034 -0.11504765 13.3548999 -0.0625 8.375 C-0.05798828 7.57320312 -0.05347656 6.77140625 -0.04882812 5.9453125 C-0.03703168 3.96350994 -0.01909605 1.98174567 0 0 Z " fill="#F4F4F4" transform="translate(173,164)"/>
<path d="M0 0 C4.29 0 8.58 0 13 0 C13 1.65 13 3.3 13 5 C10.69 5 8.38 5 6 5 C6 6.32 6 7.64 6 9 C7.98 9 9.96 9 12 9 C12 10.32 12 11.64 12 13 C10.02 13 8.04 13 6 13 C6 14.65 6 16.3 6 18 C8.31 18 10.62 18 13 18 C13 19.65 13 21.3 13 23 C8.71 23 4.42 23 0 23 C0 15.41 0 7.82 0 0 Z " fill="#F2F2F2" transform="translate(133,164)"/>
<path d="M0 0 C2.31 0 4.62 0 7 0 C7 6.6 7 13.2 7 20 C4.69 20 2.38 20 0 20 C0 13.4 0 6.8 0 0 Z " fill="#F7F7F7" transform="translate(138,96)"/>
<path d="M0 0 C2.375 -0.125 2.375 -0.125 5 0 C7 2 7 2 7.265625 4.09375 C7.26046875 4.8878125 7.2553125 5.681875 7.25 6.5 C7.25515625 7.2940625 7.2603125 8.088125 7.265625 8.90625 C7 11 7 11 5 13 C0.44444444 12.44444444 0.44444444 12.44444444 -1 11 C-1.09823996 9.52351124 -1.12973519 8.04224583 -1.125 6.5625 C-1.12757813 5.75941406 -1.13015625 4.95632812 -1.1328125 4.12890625 C-1 2 -1 2 0 0 Z " fill="#070707" transform="translate(225,169)"/>
<path d="M0 0 C2.375 0.75 2.375 0.75 3.375 1.75 C3.5625 4.1875 3.5625 4.1875 3.375 6.75 C2.715 7.41 2.055 8.07 1.375 8.75 C-1.75 8.375 -1.75 8.375 -4.625 7.75 C-5.3125 5.4375 -5.3125 5.4375 -5.625 2.75 C-3.9659358 -0.015107 -3.22812218 -0.30744021 0 0 Z " fill="#A1A1A1" transform="translate(153.625,104.25)"/>
<path d="M0 0 C2.31 0 4.62 0 7 0 C7 1.65 7 3.3 7 5 C4.69 5 2.38 5 0 5 C0 3.35 0 1.7 0 0 Z " fill="#F5F5F5" transform="translate(138,89)"/>
<path d="M0 0 C1.2065625 0.0309375 1.2065625 0.0309375 2.4375 0.0625 C2.1075 1.3825 1.7775 2.7025 1.4375 4.0625 C-0.2125 4.3925 -1.8625 4.7225 -3.5625 5.0625 C-3.5625 0.08689024 -3.5625 0.08689024 0 0 Z " fill="#3C3C3C" transform="translate(98.5625,106.9375)"/>
<path d="M0 0 C0 0.99 0 1.98 0 3 C-3.96 2.67 -7.92 2.34 -12 2 C-12 1.67 -12 1.34 -12 1 C-7.95858806 0.36605303 -4.0934693 -0.12404452 0 0 Z " fill="#262626" transform="translate(100,101)"/>
<path d="M0 0 C1.32 0.33 2.64 0.66 4 1 C3.67 2.32 3.34 3.64 3 5 C2.01 5 1.02 5 0 5 C0 3.35 0 1.7 0 0 Z " fill="#101010" transform="translate(203,169)"/>
</svg>
